<svg width="200" height="32" viewBox="0 0 200 32" fill="none" xmlns="http://www.w3.org/2000/svg">
<path d="M16.785 30.515L18.795 28.55C18.71 28.465 17.665 27.505 15.7 25.66L12.81 23.025L12.725 22.9L5.315 15.95L2.97 13.605V8.08001C2.97 7.28501 2.97 6.28001 3.055 4.98501C3.14 3.10001 3.14 2.55501 3.14 1.93001H0C0.125 3.02001 0.125 3.56001 0.21 9.00501V20.765L0.17 25.075L0.085 29.595V29.76H3.1C3.06 28.88 3.015 28.085 2.975 23.4L3.015 17.71L16.785 30.52V30.515Z" fill="#007A88"/>
<path d="M19.215 29.76C20.05 27.415 20.93 25.03 21.725 22.685C22.94 19.21 24.15 15.735 25.41 12.22L29.635 0L40.14 29.76H37.25L34.28 21.055H25.03L22.1 29.76H19.21H19.215ZM33.32 18.585L29.555 7.62L25.87 18.585H33.32Z" fill="#007A88"/>
<path d="M57.68 4.27H50.355C50.355 4.27 48.595 4.31 47.05 4.31C45.375 4.35 44.455 4.35 43.575 4.395L43.615 1.925L62.575 1.8L46.17 27.5L56.425 27.415H56.595C61.115 27.33 61.365 27.33 61.785 27.33V29.755H41.36L57.68 4.27Z" fill="#007A88"/>
<path d="M66.89 29.76C66.89 29.55 66.89 29.51 67.055 27.25C67.095 26.58 67.095 25.745 67.095 24.655V7.745C67.135 7.45 67.135 7.075 67.135 6.74C67.135 6.24 67.095 5.61 67.05 4.815C66.965 3.06 66.925 2.515 66.925 1.97H83.5L82.665 4.735C81.87 4.57 79.82 4.4 78.06 4.4H69.98L69.895 17H83.375L82.495 19.805H82.16L80.275 19.595C79.775 19.555 78.435 19.51 77.18 19.51L69.895 19.55L69.935 27.295L81.485 27.38H81.61L82.905 27.295H83.87C83.91 27.295 84.12 27.255 84.33 27.21L83.535 29.765H66.875L66.89 29.76Z" fill="#007A88"/>
<path d="M108.49 19.225C108.605 19.725 108.665 20.135 108.665 20.6C108.665 22.885 107.26 23.91 104.18 23.91C104.15 23.91 103.885 23.91 103.655 23.88C103.39 25.255 102.92 26.31 102.13 27.13C100.81 28.595 98.205 29.53 95.51 29.53C93.165 29.53 91.205 28.825 89.825 27.51C88.48 26.22 87.715 24.52 87.715 22.795C87.715 19.63 90.145 17.14 93.31 17.025C92.755 15.97 92.52 15.15 92.52 14.215C92.52 11.725 94.51 9.88 97.265 9.88C99.17 9.88 100.575 10.76 101.835 12.75L100.515 13.745C99.43 12.22 98.29 11.49 96.94 11.49C95.415 11.49 94.305 12.66 94.305 14.275C94.305 15.62 95.24 17.38 96.59 18.525L95.475 18.495C93.045 18.495 91.815 18.79 90.905 19.61C89.995 20.4 89.5 21.6 89.5 22.92C89.5 25.94 91.96 27.93 95.68 27.93C99.02 27.93 101.335 26.495 102.065 23.945H101.89C100.335 23.975 98.93 23.975 97.64 23.975L96.44 24.005H96.325V22.335H102.095C102.095 21.575 101.92 19.875 101.775 19.26L103.415 19.29C103.68 20.43 103.795 21.34 103.825 22.335H104.12C105.615 22.305 106.085 22.22 106.465 21.955C106.875 21.66 107.11 21.045 107.11 20.345C107.11 19.965 107.08 19.815 106.965 19.525L108.49 19.23V19.225Z" fill="#007A88"/>
<path d="M168.27 15.82C168.27 24.065 161.865 30.51 153.665 30.51C149.645 30.51 145.46 28.46 142.785 25.195C140.69 22.64 139.56 19.335 139.56 15.86C139.56 11.505 141.15 7.78001 144.205 5.02001C146.885 2.55001 150.565 1.08501 154.085 1.08501C162.12 1.08501 168.275 7.49001 168.275 15.82H168.27ZM142.405 16.07C142.405 22.515 147.47 27.79 153.75 27.79C160.03 27.79 165.635 22.475 165.635 15.775C165.635 9.07501 160.485 3.80501 154.165 3.80501C147.845 3.80501 142.405 9.33001 142.405 16.07Z" fill="#007A88"/>
<path d="M177.95 19.005C184.94 18.71 188.03 16.035 188.03 11.18C188.03 8.29 186.65 5.825 184.265 4.61C183.05 3.94 181.795 3.68999 179.91 3.68999C178.945 3.68999 177.775 3.81499 176.435 4.06499V24.615L176.685 29.595V29.76H173.505V29.595C173.615 27.5317 173.67 26.4433 173.67 26.33L173.63 7.665C173.67 6.91 173.42 3.10499 173.295 2.26499C174.97 1.71999 178.15 1.25999 180.2 1.25999C186.395 1.25999 190.705 5.23499 190.705 10.97C190.705 13.815 189.615 16.535 187.815 18.085C186.6 19.13 184.615 20.235 182.525 20.905L177.95 19.005Z" fill="#007A88"/>
<path d="M197.03 29.59V27.625L197.07 25.74V6.82499L197.03 4.47999L196.99 2.00999V1.75999H199.835V22.395L199.92 25.995L200.005 29.635V29.76H197.035V29.595L197.03 29.59Z" fill="#007A88"/>
<path d="M114.11 1.235L124.49 15.84L134.62 1.44L135.33 30.32H132.36L132.11 9.475L124.365 20.315L116.455 9.475L115.785 30.32H112.895L114.11 1.23V1.235Z" fill="#007A88"/>
<path d="M14.5659 1.05853L3.72638 13.017L4.09684 13.3528L14.9363 1.39433L14.5659 1.05853Z" fill="#80BCC3"/>
<path d="M15.6921 2.08502L4.85266 14.0435L5.22312 14.3793L16.0626 2.42082L15.6921 2.08502Z" fill="#80BCC3"/>
<path d="M16.8221 3.10986L5.98264 15.0683L6.3531 15.4041L17.1926 3.44566L16.8221 3.10986Z" fill="#80BCC3"/>
<path d="M186.39 23.175C182.75 19.825 177.95 19.115 177.95 19.115C177.95 19.115 179.05 23.84 182.685 27.195C186.325 30.545 191.125 31.255 191.125 31.255C191.125 31.255 190.025 26.53 186.39 23.175Z" fill="#80BCC3"/>
</svg>
