<svg width="200" height="31" viewBox="0 0 200 31" fill="none" xmlns="http://www.w3.org/2000/svg">
<g clip-path="url(#clip0_46_392)">
<path d="M16.785 30.2709L18.795 28.3216C18.71 28.2373 17.665 27.285 15.7 25.4547L12.81 22.8408L12.725 22.7168L5.315 15.8224L2.97 13.4962V8.01535C2.97 7.22671 2.97 6.22975 3.055 4.94511C3.14 3.07519 3.14 2.53455 3.14 1.91455H0C0.125 2.99583 0.125 3.53151 0.21 8.93295V20.5989L0.17 24.8744L0.085 29.3582V29.5219H3.1C3.06 28.649 3.015 27.8603 2.975 23.2128L3.015 17.5683L16.785 30.2758V30.2709Z" fill="white"/>
<path d="M19.215 29.5219C20.05 27.1957 20.93 24.8298 21.725 22.5035C22.94 19.0563 24.15 15.6091 25.41 12.1222L29.635 0L40.14 29.5219H37.25L34.28 20.8866H25.03L22.1 29.5219H19.21H19.215ZM33.32 18.4363L29.555 7.55904L25.87 18.4363H33.32Z" fill="white"/>
<path d="M57.6801 4.23588H50.3551C50.3551 4.23588 48.5951 4.27556 47.0501 4.27556C45.3751 4.31524 44.4551 4.31524 43.5751 4.35988L43.6151 1.90964L62.5751 1.78564L46.1701 27.28L56.4251 27.1957H56.5951C61.1151 27.1114 61.3651 27.1114 61.7851 27.1114V29.517H41.3601L57.6801 4.23588Z" fill="white"/>
<path d="M66.89 29.522C66.89 29.3137 66.89 29.274 67.055 27.0321C67.095 26.3675 67.095 25.5391 67.095 24.4579V7.68315C67.135 7.39051 67.135 7.01851 67.135 6.68619C67.135 6.19019 67.095 5.56523 67.05 4.77659C66.965 3.03563 66.925 2.49499 66.925 1.95435H83.5L82.665 4.69723C81.87 4.53355 79.82 4.36491 78.06 4.36491H69.98L69.895 16.8641H83.375L82.495 19.6467H82.16L80.275 19.4383C79.775 19.3987 78.435 19.354 77.18 19.354L69.895 19.3937L69.935 27.0767L81.485 27.1611H81.61L82.905 27.0767H83.87C83.91 27.0767 84.12 27.0371 84.33 26.9924L83.535 29.527H66.875L66.89 29.522Z" fill="white"/>
<path d="M108.49 19.0713C108.605 19.5673 108.665 19.974 108.665 20.4353C108.665 22.702 107.26 23.7188 104.18 23.7188C104.15 23.7188 103.885 23.7188 103.655 23.689C103.39 25.053 102.92 26.0996 102.13 26.913C100.81 28.3663 98.2051 29.2938 95.5101 29.2938C93.1651 29.2938 91.2051 28.5945 89.8251 27.29C88.4801 26.0103 87.7151 24.3239 87.7151 22.6127C87.7151 19.473 90.1451 17.0029 93.3101 16.8889C92.7551 15.8423 92.5201 15.0289 92.5201 14.1013C92.5201 11.6313 94.5101 9.80103 97.2651 9.80103C99.1701 9.80103 100.575 10.674 101.835 12.6481L100.515 13.6351C99.4301 12.1223 98.2901 11.3981 96.9401 11.3981C95.4151 11.3981 94.3051 12.5588 94.3051 14.1609C94.3051 15.4951 95.2401 17.241 96.5901 18.3769L95.4751 18.3471C93.0451 18.3471 91.8151 18.6397 90.9051 19.4532C89.9951 20.2369 89.5001 21.4273 89.5001 22.7367C89.5001 25.7325 91.9601 27.7066 95.6801 27.7066C99.0201 27.7066 101.335 26.2831 102.065 23.7535H101.89C100.335 23.7833 98.9301 23.7833 97.6401 23.7833L96.4401 23.813H96.3251V22.1564H102.095C102.095 21.4025 101.92 19.7161 101.775 19.106L103.415 19.1357C103.68 20.2666 103.795 21.1693 103.825 22.1564H104.12C105.615 22.1266 106.085 22.0423 106.465 21.7794C106.875 21.4868 107.11 20.8767 107.11 20.1823C107.11 19.8053 107.08 19.6565 106.965 19.3689L108.49 19.0762V19.0713Z" fill="white"/>
<path d="M168.27 15.6935C168.27 23.8726 161.865 30.266 153.665 30.266C149.645 30.266 145.46 28.2324 142.785 24.9935C140.69 22.459 139.56 19.1804 139.56 15.7332C139.56 11.4131 141.15 7.71786 144.205 4.97994C146.885 2.5297 150.565 1.07642 154.085 1.07642C162.12 1.07642 168.275 7.43018 168.275 15.6935H168.27ZM142.405 15.9415C142.405 22.335 147.47 27.5678 153.75 27.5678C160.03 27.5678 165.635 22.2953 165.635 15.6489C165.635 9.0025 160.485 3.77466 154.165 3.77466C147.845 3.77466 142.405 9.25546 142.405 15.9415Z" fill="white"/>
<path d="M177.95 18.853C184.94 18.5604 188.03 15.9068 188.03 11.0906C188.03 8.22376 186.65 5.77848 184.265 4.5732C183.05 3.90856 181.795 3.66056 179.91 3.66056C178.945 3.66056 177.775 3.78456 176.435 4.03256V24.4182L176.685 29.3583V29.522H173.505V29.3583C173.615 27.3115 173.67 26.2319 173.67 26.1194L173.63 7.60376C173.67 6.8548 173.42 3.08024 173.295 2.24696C174.97 1.70632 178.15 1.25 180.2 1.25C186.395 1.25 190.705 5.1932 190.705 10.8823C190.705 13.7046 189.615 16.4028 187.815 17.9404C186.6 18.977 184.615 20.0732 182.525 20.7378L177.95 18.853Z" fill="white"/>
<path d="M197.03 29.3532V27.4039L197.07 25.534V6.77033L197.03 4.44409L196.99 1.99385V1.74585H199.835V22.2158L199.92 25.787L200.005 29.3979V29.5219H197.035V29.3582L197.03 29.3532Z" fill="white"/>
<path d="M114.11 1.22517L124.49 15.7133L134.62 1.42853L135.33 30.0775H132.36L132.11 9.39926L124.365 20.1525L116.455 9.39926L115.785 30.0775H112.895L114.11 1.22021V1.22517Z" fill="white"/>
<path d="M14.5658 1.05003L3.72632 12.9128L4.09678 13.246L14.9363 1.38314L14.5658 1.05003Z" fill="#CCCCCC"/>
<path d="M15.692 2.06834L4.85254 13.9312L5.223 14.2643L16.0625 2.40145L15.692 2.06834Z" fill="#CCCCCC"/>
<path d="M16.8221 3.08494L5.98267 14.9478L6.35313 15.2809L17.1926 3.41805L16.8221 3.08494Z" fill="#CCCCCC"/>
<path d="M186.39 22.9897C182.75 19.6665 177.95 18.9622 177.95 18.9622C177.95 18.9622 179.05 23.6494 182.685 26.9775C186.325 30.3007 191.125 31.005 191.125 31.005C191.125 31.005 190.025 26.3178 186.39 22.9897Z" fill="#CCCCCC"/>
</g>
<defs>
<clipPath id="clip0_46_392">
<rect width="200" height="31" fill="white"/>
</clipPath>
</defs>
</svg>
