<svg width="11" height="13" viewBox="0 0 11 13" fill="none" xmlns="http://www.w3.org/2000/svg">
<path d="M9.33301 5.11523C9.33297 4.02562 8.89598 2.97921 8.11523 2.20703C7.33432 1.43469 6.27372 1.00008 5.16699 1C4.06029 1 2.99971 1.43482 2.21875 2.20703C1.43799 2.97921 1.00004 4.02562 1 5.11523C1 6.58729 1.6459 7.96287 2.47754 9.11914C3.30645 10.2716 4.29062 11.1654 4.89844 11.6631C4.99459 11.7418 5.0422 11.7801 5.08008 11.8057C5.10686 11.8237 5.11516 11.8265 5.12109 11.8281C5.11784 11.8272 5.12098 11.8279 5.13086 11.8291C5.14051 11.8303 5.15336 11.8311 5.16699 11.8311C5.18046 11.831 5.19259 11.8302 5.20215 11.8291C5.21235 11.8279 5.21548 11.8271 5.21191 11.8281C5.21796 11.8264 5.22582 11.8239 5.25293 11.8057C5.29086 11.7801 5.33822 11.742 5.43457 11.6631C6.04236 11.1654 7.02744 10.2718 7.85645 9.11914C8.68796 7.96293 9.33301 6.58718 9.33301 5.11523ZM6 4.5C6 4.03987 5.62708 3.66717 5.16699 3.66699C4.70675 3.66699 4.33301 4.03976 4.33301 4.5C4.33301 4.96024 4.70675 5.33301 5.16699 5.33301C5.62708 5.33283 6 4.96013 6 4.5ZM10.333 5.11523C10.333 6.87769 9.56422 8.45696 8.66797 9.70312C7.76918 10.9528 6.71306 11.9096 6.06836 12.4375C5.90979 12.5673 5.73625 12.7186 5.48242 12.79C5.28976 12.8442 5.04321 12.8442 4.85059 12.79C4.59682 12.7186 4.42381 12.567 4.26562 12.4375C3.62093 11.9096 2.56386 10.9528 1.66504 9.70312C0.768812 8.45699 0 6.87761 0 5.11523C4.36706e-05 3.75682 0.546123 2.45494 1.51562 1.49609C2.48495 0.537576 3.79863 0 5.16699 0C6.5354 7.82952e-05 7.84908 0.537466 8.81836 1.49609C9.78785 2.45495 10.333 3.75683 10.333 5.11523ZM7 4.5C7 5.51241 6.17936 6.33283 5.16699 6.33301C4.15447 6.33301 3.33301 5.51252 3.33301 4.5C3.33301 3.48748 4.15447 2.66699 5.16699 2.66699C6.17936 2.66717 7 3.48759 7 4.5Z" fill="#333333"/>
</svg>
