<svg width="64" height="64" viewBox="0 0 64 64" fill="none" xmlns="http://www.w3.org/2000/svg">
<g clip-path="url(#clip0_46_365)">
<path d="M23.9999 7.96004C25.4727 7.96004 26.6666 6.76614 26.6666 5.29338C26.6666 3.82062 25.4727 2.62671 23.9999 2.62671C22.5272 2.62671 21.3333 3.82062 21.3333 5.29338C21.3333 6.76614 22.5272 7.96004 23.9999 7.96004Z" fill="#333333"/>
<path d="M41.3334 7.96004C42.8062 7.96004 44.0001 6.76614 44.0001 5.29338C44.0001 3.82062 42.8062 2.62671 41.3334 2.62671C39.8607 2.62671 38.6667 3.82062 38.6667 5.29338C38.6667 6.76614 39.8607 7.96004 41.3334 7.96004Z" fill="#333333"/>
<path d="M19.0666 26.1734C20.5393 26.1734 21.7332 24.9795 21.7332 23.5068C21.7332 22.034 20.5393 20.8401 19.0666 20.8401C17.5938 20.8401 16.3999 22.034 16.3999 23.5068C16.3999 24.9795 17.5938 26.1734 19.0666 26.1734Z" fill="#333333"/>
<path d="M17.2668 33.96C18.7395 33.96 19.9334 32.7661 19.9334 31.2934C19.9334 29.8206 18.7395 28.6267 17.2668 28.6267C15.794 28.6267 14.6001 29.8206 14.6001 31.2934C14.6001 32.7661 15.794 33.96 17.2668 33.96Z" fill="#333333"/>
<path d="M15.4667 41.7601C16.9395 41.7601 18.1334 40.5662 18.1334 39.0934C18.1334 37.6207 16.9395 36.4268 15.4667 36.4268C13.994 36.4268 12.8 37.6207 12.8 39.0934C12.8 40.5662 13.994 41.7601 15.4667 41.7601Z" fill="#333333"/>
<path d="M28 14.6666L22 40.6399C21.5969 42.3674 20.5241 43.8639 19.0175 44.8004C17.511 45.7368 15.6941 46.0364 13.9667 45.6333C12.2393 45.2302 10.7427 44.1573 9.80628 42.6508C8.86985 41.1442 8.57024 39.3274 8.97337 37.6L14.9734 11.6133" stroke="#333333" stroke-width="2" stroke-linecap="round" stroke-linejoin="round"/>
<path d="M13.9734 45.5867L10.6667 59.88" stroke="#333333" stroke-width="2" stroke-linecap="round" stroke-linejoin="round"/>
<path d="M17.16 61.3734L4.17334 58.3867" stroke="#333333" stroke-width="2" stroke-linecap="round" stroke-linejoin="round"/>
<path d="M44.9333 26.1734C46.406 26.1734 47.5999 24.9795 47.5999 23.5068C47.5999 22.034 46.406 20.8401 44.9333 20.8401C43.4605 20.8401 42.2666 22.034 42.2666 23.5068C42.2666 24.9795 43.4605 26.1734 44.9333 26.1734Z" fill="#333333"/>
<path d="M46.7333 33.96C48.2061 33.96 49.4 32.7661 49.4 31.2934C49.4 29.8206 48.2061 28.6267 46.7333 28.6267C45.2606 28.6267 44.0667 29.8206 44.0667 31.2934C44.0667 32.7661 45.2606 33.96 46.7333 33.96Z" fill="#333333"/>
<path d="M48.5334 41.7601C50.0061 41.7601 51.2 40.5662 51.2 39.0934C51.2 37.6207 50.0061 36.4268 48.5334 36.4268C47.0606 36.4268 45.8667 37.6207 45.8667 39.0934C45.8667 40.5662 47.0606 41.7601 48.5334 41.7601Z" fill="#333333"/>
<path d="M36 14.6666L42 40.6399C42.4444 42.3109 43.5206 43.7438 45.0014 44.6363C46.4822 45.5288 48.2519 45.8111 49.9369 45.4235C51.6219 45.036 53.0905 44.009 54.0326 42.5593C54.9748 41.1095 55.3169 39.3505 54.9867 37.6533L49.0267 11.6133" stroke="#333333" stroke-width="2" stroke-linecap="round" stroke-linejoin="round"/>
<path d="M50.0266 45.5867L53.3333 59.88" stroke="#333333" stroke-width="2" stroke-linecap="round" stroke-linejoin="round"/>
<path d="M46.8401 61.3734L59.8268 58.3867" stroke="#333333" stroke-width="2" stroke-linecap="round" stroke-linejoin="round"/>
</g>
<defs>
<clipPath id="clip0_46_365">
<rect width="64" height="64" fill="white"/>
</clipPath>
</defs>
</svg>
